<?xml version="1.0" encoding="UTF-8"?>
<svg xmlns="http://www.w3.org/2000/svg" xmlns:xlink="http://www.w3.org/1999/xlink" width="50px" height="50px" viewBox="0 0 50 50" version="1.1">
<g id="surface1">
<path style=" stroke:none;fill-rule:evenodd;fill:rgb(0%,21.568627%,43.921569%);fill-opacity:1;" d="M 21.652344 30.890625 C 21.5 30.957031 21.367188 31.0625 21.25 31.214844 C 21.179688 31.3125 21.125 31.417969 21.082031 31.53125 C 21.046875 31.648438 21.027344 31.765625 21.027344 31.882812 C 21.027344 32.089844 21.082031 32.257812 21.195312 32.390625 C 21.3125 32.523438 21.453125 32.59375 21.625 32.59375 C 21.714844 32.59375 21.796875 32.570312 21.875 32.53125 C 21.949219 32.488281 22.023438 32.425781 22.089844 32.335938 L 22.058594 32.558594 L 22.390625 32.558594 L 22.652344 30.792969 L 22.242188 30.792969 C 22 30.789062 21.800781 30.824219 21.652344 30.890625 Z M 22.140625 32.011719 C 22.082031 32.109375 22.019531 32.1875 21.949219 32.234375 C 21.878906 32.285156 21.808594 32.308594 21.730469 32.308594 C 21.628906 32.308594 21.546875 32.265625 21.484375 32.183594 C 21.421875 32.097656 21.390625 31.984375 21.390625 31.847656 C 21.390625 31.621094 21.460938 31.4375 21.609375 31.292969 C 21.757812 31.148438 21.949219 31.078125 22.183594 31.078125 C 22.207031 31.078125 22.226562 31.078125 22.238281 31.078125 C 22.253906 31.078125 22.265625 31.078125 22.273438 31.078125 Z M 22.140625 32.011719 "/>
<path style=" stroke:none;fill-rule:evenodd;fill:rgb(0%,21.568627%,43.921569%);fill-opacity:1;" d="M 6.527344 30.199219 L 7.59375 30.199219 L 7.644531 29.882812 L 6.21875 29.882812 L 5.816406 32.558594 L 6.183594 32.558594 L 6.359375 31.34375 L 7.300781 31.34375 L 7.347656 31.015625 L 6.40625 31.015625 Z M 6.527344 30.199219 "/>
<path style=" stroke:none;fill-rule:evenodd;fill:rgb(0%,21.568627%,43.921569%);fill-opacity:1;" d="M 43.550781 30.890625 C 43.398438 30.957031 43.265625 31.0625 43.152344 31.214844 C 43.078125 31.3125 43.023438 31.417969 42.984375 31.53125 C 42.945312 31.648438 42.925781 31.765625 42.925781 31.882812 C 42.925781 32.089844 42.984375 32.257812 43.097656 32.390625 C 43.210938 32.523438 43.351562 32.59375 43.523438 32.59375 C 43.613281 32.59375 43.695312 32.570312 43.773438 32.53125 C 43.847656 32.488281 43.921875 32.425781 43.992188 32.335938 L 43.957031 32.558594 L 44.292969 32.558594 L 44.550781 30.792969 L 44.140625 30.792969 C 43.898438 30.789062 43.703125 30.824219 43.550781 30.890625 Z M 44.039062 32.011719 C 43.980469 32.109375 43.917969 32.1875 43.847656 32.234375 C 43.78125 32.285156 43.707031 32.308594 43.628906 32.308594 C 43.527344 32.308594 43.449219 32.265625 43.382812 32.183594 C 43.320312 32.097656 43.289062 31.984375 43.289062 31.847656 C 43.289062 31.621094 43.363281 31.4375 43.511719 31.292969 C 43.660156 31.148438 43.851562 31.078125 44.085938 31.078125 C 44.109375 31.078125 44.128906 31.078125 44.140625 31.078125 C 44.152344 31.078125 44.164062 31.078125 44.175781 31.078125 Z M 44.039062 32.011719 "/>
<path style=" stroke:none;fill-rule:evenodd;fill:rgb(0%,21.568627%,43.921569%);fill-opacity:1;" d="M 9.363281 31.097656 L 10.277344 31.097656 L 9.117188 32.523438 L 9.113281 32.558594 L 10.714844 32.558594 L 10.777344 32.246094 L 9.75 32.246094 L 10.898438 30.828125 L 10.898438 30.789062 L 9.410156 30.789062 Z M 9.363281 31.097656 "/>
<path style=" stroke:none;fill-rule:evenodd;fill:rgb(0%,21.568627%,43.921569%);fill-opacity:1;" d="M 8.71875 30.789062 C 8.480469 30.789062 8.285156 30.824219 8.132812 30.890625 C 7.980469 30.957031 7.847656 31.0625 7.734375 31.214844 C 7.660156 31.3125 7.605469 31.417969 7.566406 31.53125 C 7.527344 31.648438 7.507812 31.765625 7.507812 31.882812 C 7.507812 32.089844 7.5625 32.257812 7.679688 32.390625 C 7.792969 32.523438 7.933594 32.59375 8.105469 32.59375 C 8.195312 32.59375 8.277344 32.570312 8.355469 32.53125 C 8.429688 32.488281 8.503906 32.425781 8.574219 32.335938 L 8.539062 32.558594 L 8.871094 32.558594 L 9.132812 30.792969 L 8.71875 30.792969 Z M 8.621094 32.011719 C 8.5625 32.109375 8.5 32.1875 8.429688 32.234375 C 8.359375 32.285156 8.289062 32.308594 8.210938 32.308594 C 8.109375 32.308594 8.027344 32.265625 7.964844 32.183594 C 7.902344 32.097656 7.871094 31.984375 7.871094 31.847656 C 7.871094 31.621094 7.945312 31.4375 8.09375 31.292969 C 8.238281 31.148438 8.429688 31.078125 8.664062 31.078125 C 8.6875 31.078125 8.707031 31.078125 8.71875 31.078125 C 8.734375 31.078125 8.746094 31.078125 8.753906 31.078125 Z M 8.621094 32.011719 "/>
<path style=" stroke:none;fill-rule:evenodd;fill:rgb(0%,21.568627%,43.921569%);fill-opacity:1;" d="M 29.394531 30.746094 L 29.316406 30.746094 C 29.152344 30.746094 29.007812 30.761719 28.882812 30.796875 C 28.757812 30.832031 28.644531 30.886719 28.546875 30.960938 C 28.398438 31.066406 28.285156 31.195312 28.207031 31.34375 C 28.128906 31.492188 28.089844 31.652344 28.089844 31.820312 C 28.089844 32.058594 28.167969 32.25 28.332031 32.386719 C 28.496094 32.523438 28.722656 32.59375 29.011719 32.59375 C 29.058594 32.59375 29.117188 32.589844 29.1875 32.585938 C 29.261719 32.582031 29.351562 32.574219 29.460938 32.5625 L 29.859375 29.882812 L 29.519531 29.882812 Z M 29.160156 32.292969 C 29.132812 32.296875 29.105469 32.300781 29.074219 32.304688 C 29.046875 32.308594 29.011719 32.308594 28.976562 32.308594 C 28.816406 32.308594 28.6875 32.261719 28.589844 32.160156 C 28.488281 32.0625 28.441406 31.933594 28.441406 31.773438 C 28.441406 31.558594 28.515625 31.382812 28.667969 31.242188 C 28.816406 31.105469 29.015625 31.035156 29.257812 31.035156 C 29.265625 31.035156 29.28125 31.039062 29.300781 31.039062 C 29.316406 31.039062 29.332031 31.039062 29.339844 31.039062 Z M 29.160156 32.292969 "/>
<path style=" stroke:none;fill-rule:evenodd;fill:rgb(0%,21.568627%,43.921569%);fill-opacity:1;" d="M 33.363281 30.75 C 33.195312 30.75 33.058594 30.796875 32.953125 30.886719 C 32.851562 30.972656 32.800781 31.089844 32.800781 31.234375 C 32.800781 31.328125 32.824219 31.40625 32.867188 31.480469 C 32.914062 31.546875 33.019531 31.640625 33.183594 31.757812 L 33.1875 31.761719 C 33.398438 31.910156 33.503906 32.023438 33.503906 32.105469 C 33.503906 32.15625 33.480469 32.199219 33.4375 32.234375 C 33.390625 32.269531 33.335938 32.285156 33.265625 32.285156 C 33.191406 32.285156 33.113281 32.265625 33.03125 32.226562 C 32.949219 32.183594 32.847656 32.113281 32.726562 32.019531 L 32.644531 32.347656 C 32.757812 32.433594 32.863281 32.492188 32.964844 32.53125 C 33.066406 32.570312 33.171875 32.589844 33.277344 32.589844 C 33.445312 32.589844 33.582031 32.542969 33.691406 32.449219 C 33.796875 32.355469 33.851562 32.234375 33.851562 32.085938 C 33.851562 31.992188 33.832031 31.910156 33.789062 31.839844 C 33.746094 31.765625 33.667969 31.6875 33.558594 31.605469 C 33.515625 31.574219 33.457031 31.53125 33.382812 31.480469 C 33.21875 31.367188 33.140625 31.277344 33.140625 31.207031 C 33.140625 31.164062 33.160156 31.125 33.199219 31.097656 C 33.234375 31.066406 33.285156 31.054688 33.347656 31.054688 C 33.429688 31.054688 33.515625 31.074219 33.605469 31.113281 C 33.699219 31.152344 33.792969 31.210938 33.894531 31.289062 L 33.921875 30.933594 C 33.839844 30.875 33.75 30.828125 33.65625 30.796875 C 33.566406 30.765625 33.46875 30.75 33.363281 30.75 Z M 33.363281 30.75 "/>
<path style=" stroke:none;fill-rule:evenodd;fill:rgb(0%,21.568627%,43.921569%);fill-opacity:1;" d="M 35.265625 31.941406 C 35.171875 32.058594 35.082031 32.148438 34.992188 32.207031 C 34.902344 32.269531 34.816406 32.296875 34.734375 32.296875 C 34.667969 32.296875 34.617188 32.28125 34.582031 32.246094 C 34.546875 32.210938 34.53125 32.160156 34.53125 32.089844 C 34.53125 32.074219 34.53125 32.046875 34.535156 32.015625 C 34.539062 31.984375 34.542969 31.953125 34.546875 31.914062 L 34.703125 30.789062 L 34.367188 30.789062 L 34.207031 31.839844 C 34.199219 31.890625 34.191406 31.941406 34.1875 31.984375 C 34.183594 32.03125 34.183594 32.074219 34.183594 32.113281 C 34.183594 32.265625 34.21875 32.386719 34.292969 32.46875 C 34.367188 32.554688 34.46875 32.597656 34.601562 32.597656 C 34.703125 32.597656 34.804688 32.570312 34.910156 32.515625 C 35.011719 32.464844 35.121094 32.382812 35.230469 32.269531 L 35.191406 32.558594 L 35.53125 32.558594 L 35.792969 30.789062 L 35.453125 30.789062 Z M 35.265625 31.941406 "/>
<path style=" stroke:none;fill-rule:evenodd;fill:rgb(0%,21.568627%,43.921569%);fill-opacity:1;" d="M 36.632812 30.890625 C 36.480469 30.957031 36.347656 31.0625 36.234375 31.214844 C 36.160156 31.3125 36.105469 31.417969 36.066406 31.53125 C 36.027344 31.648438 36.007812 31.765625 36.007812 31.882812 C 36.007812 32.089844 36.066406 32.257812 36.179688 32.390625 C 36.292969 32.523438 36.4375 32.59375 36.605469 32.59375 C 36.695312 32.59375 36.777344 32.570312 36.855469 32.53125 C 36.933594 32.488281 37.003906 32.425781 37.074219 32.335938 L 37.042969 32.558594 L 37.375 32.558594 L 37.632812 30.792969 L 37.222656 30.792969 C 36.980469 30.789062 36.785156 30.824219 36.632812 30.890625 Z M 37.121094 32.011719 C 37.0625 32.109375 37 32.1875 36.929688 32.234375 C 36.863281 32.285156 36.789062 32.308594 36.710938 32.308594 C 36.609375 32.308594 36.53125 32.265625 36.464844 32.183594 C 36.402344 32.097656 36.371094 31.984375 36.371094 31.847656 C 36.371094 31.621094 36.445312 31.4375 36.59375 31.292969 C 36.742188 31.148438 36.933594 31.078125 37.167969 31.078125 C 37.191406 31.078125 37.210938 31.078125 37.222656 31.078125 C 37.234375 31.078125 37.246094 31.078125 37.257812 31.078125 Z M 37.121094 32.011719 "/>
<path style=" stroke:none;fill-rule:evenodd;fill:rgb(0%,21.568627%,43.921569%);fill-opacity:1;" d="M 39.335938 31.890625 L 39.105469 30.789062 L 38.765625 30.789062 L 39.160156 32.558594 L 39.332031 32.558594 L 40.238281 30.789062 L 39.886719 30.789062 Z M 39.335938 31.890625 "/>
<path style=" stroke:none;fill-rule:evenodd;fill:rgb(0%,21.568627%,43.921569%);fill-opacity:1;" d="M 30.53125 30.890625 C 30.382812 30.957031 30.25 31.0625 30.132812 31.214844 C 30.0625 31.3125 30.003906 31.417969 29.964844 31.53125 C 29.925781 31.648438 29.90625 31.765625 29.90625 31.882812 C 29.90625 32.089844 29.964844 32.257812 30.078125 32.390625 C 30.191406 32.523438 30.335938 32.59375 30.507812 32.59375 C 30.59375 32.59375 30.679688 32.570312 30.753906 32.53125 C 30.832031 32.488281 30.902344 32.425781 30.972656 32.335938 L 30.941406 32.558594 L 31.273438 32.558594 L 31.53125 30.792969 L 31.121094 30.792969 C 30.882812 30.789062 30.683594 30.824219 30.53125 30.890625 Z M 31.023438 32.011719 C 30.964844 32.109375 30.902344 32.1875 30.832031 32.234375 C 30.761719 32.285156 30.6875 32.308594 30.609375 32.308594 C 30.511719 32.308594 30.429688 32.265625 30.367188 32.183594 C 30.300781 32.097656 30.269531 31.984375 30.269531 31.847656 C 30.269531 31.621094 30.34375 31.4375 30.492188 31.292969 C 30.640625 31.148438 30.832031 31.078125 31.066406 31.078125 C 31.089844 31.078125 31.109375 31.078125 31.121094 31.078125 C 31.136719 31.078125 31.144531 31.078125 31.15625 31.078125 Z M 31.023438 32.011719 "/>
<path style=" stroke:none;fill-rule:evenodd;fill:rgb(0%,21.568627%,43.921569%);fill-opacity:1;" d="M 26.207031 30.75 C 25.960938 30.75 25.757812 30.84375 25.597656 31.035156 C 25.4375 31.226562 25.355469 31.46875 25.355469 31.761719 C 25.355469 32.007812 25.425781 32.207031 25.566406 32.363281 C 25.710938 32.515625 25.890625 32.59375 26.113281 32.59375 C 26.214844 32.59375 26.3125 32.578125 26.410156 32.546875 C 26.511719 32.515625 26.609375 32.464844 26.710938 32.398438 L 26.765625 32.039062 C 26.644531 32.132812 26.535156 32.203125 26.4375 32.242188 C 26.335938 32.285156 26.242188 32.308594 26.144531 32.308594 C 26.023438 32.308594 25.921875 32.257812 25.839844 32.164062 C 25.753906 32.066406 25.714844 31.945312 25.714844 31.800781 L 25.714844 31.757812 L 25.722656 31.640625 L 26.835938 31.640625 L 26.835938 31.441406 C 26.835938 31.21875 26.78125 31.046875 26.675781 30.925781 C 26.566406 30.808594 26.410156 30.75 26.207031 30.75 Z M 26.519531 31.394531 L 25.777344 31.394531 C 25.816406 31.265625 25.871094 31.171875 25.941406 31.113281 C 26.015625 31.050781 26.105469 31.023438 26.214844 31.023438 C 26.308594 31.023438 26.382812 31.050781 26.4375 31.109375 C 26.492188 31.167969 26.519531 31.246094 26.519531 31.347656 Z M 26.519531 31.394531 "/>
<path style=" stroke:none;fill-rule:evenodd;fill:rgb(0%,21.568627%,43.921569%);fill-opacity:1;" d="M 17.238281 30.75 C 17.007812 30.75 16.808594 30.855469 16.640625 31.058594 C 16.476562 31.261719 16.394531 31.511719 16.394531 31.804688 C 16.394531 32.050781 16.453125 32.242188 16.574219 32.382812 C 16.691406 32.523438 16.855469 32.589844 17.066406 32.589844 C 17.316406 32.589844 17.523438 32.492188 17.691406 32.292969 C 17.855469 32.097656 17.9375 31.84375 17.9375 31.542969 C 17.9375 31.296875 17.875 31.105469 17.75 30.964844 C 17.625 30.824219 17.453125 30.75 17.238281 30.75 Z M 17.441406 32.09375 C 17.347656 32.242188 17.226562 32.316406 17.082031 32.316406 C 16.980469 32.316406 16.902344 32.273438 16.839844 32.1875 C 16.78125 32.101562 16.753906 31.980469 16.753906 31.832031 C 16.753906 31.613281 16.800781 31.425781 16.902344 31.265625 C 17 31.109375 17.117188 31.03125 17.25 31.03125 C 17.355469 31.03125 17.4375 31.074219 17.496094 31.15625 C 17.554688 31.238281 17.582031 31.355469 17.582031 31.507812 C 17.582031 31.746094 17.535156 31.941406 17.441406 32.09375 Z M 17.441406 32.09375 "/>
<path style=" stroke:none;fill-rule:evenodd;fill:rgb(0%,21.568627%,43.921569%);fill-opacity:1;" d="M 23.820312 30.765625 C 23.734375 30.765625 23.660156 30.789062 23.589844 30.84375 C 23.523438 30.894531 23.445312 30.988281 23.359375 31.125 L 23.40625 30.789062 L 23.078125 30.789062 L 22.8125 32.554688 L 23.140625 32.554688 L 23.289062 31.558594 C 23.363281 31.398438 23.4375 31.28125 23.519531 31.210938 C 23.597656 31.136719 23.6875 31.101562 23.785156 31.101562 C 23.796875 31.101562 23.8125 31.101562 23.832031 31.101562 C 23.847656 31.105469 23.863281 31.109375 23.878906 31.109375 L 23.96875 30.792969 C 23.941406 30.78125 23.914062 30.777344 23.890625 30.769531 C 23.863281 30.765625 23.84375 30.765625 23.820312 30.765625 Z M 23.820312 30.765625 "/>
<path style=" stroke:none;fill-rule:evenodd;fill:rgb(0%,21.568627%,43.921569%);fill-opacity:1;" d="M 40.765625 30.054688 C 40.714844 30.054688 40.667969 30.074219 40.632812 30.109375 C 40.597656 30.144531 40.578125 30.1875 40.578125 30.242188 C 40.578125 30.292969 40.59375 30.339844 40.628906 30.375 C 40.667969 30.410156 40.710938 30.425781 40.765625 30.425781 C 40.816406 30.425781 40.859375 30.410156 40.894531 30.371094 C 40.929688 30.335938 40.949219 30.292969 40.949219 30.242188 C 40.949219 30.191406 40.929688 30.144531 40.894531 30.109375 C 40.859375 30.074219 40.816406 30.054688 40.765625 30.054688 Z M 40.765625 30.054688 "/>
<path style=" stroke:none;fill-rule:evenodd;fill:rgb(0%,21.568627%,43.921569%);fill-opacity:1;" d="M 40.261719 32.558594 L 40.601562 32.558594 L 40.859375 30.789062 L 40.519531 30.789062 Z M 40.261719 32.558594 "/>
<path style=" stroke:none;fill-rule:evenodd;fill:rgb(0%,21.568627%,43.921569%);fill-opacity:1;" d="M 20.074219 30.746094 C 20.027344 30.746094 19.976562 30.75 19.929688 30.757812 C 19.878906 30.769531 19.828125 30.785156 19.777344 30.800781 L 19.84375 30.359375 L 19.503906 30.359375 L 19.410156 31.003906 C 19.3125 31.09375 19.230469 31.1875 19.164062 31.292969 C 19.097656 31.398438 19.066406 31.472656 19.066406 31.519531 C 19.066406 31.53125 19.066406 31.539062 19.074219 31.546875 C 19.078125 31.554688 19.085938 31.558594 19.09375 31.558594 C 19.105469 31.558594 19.136719 31.519531 19.1875 31.445312 C 19.234375 31.367188 19.296875 31.304688 19.371094 31.25 L 19.046875 33.445312 L 19.386719 33.445312 L 19.511719 32.585938 L 19.613281 32.585938 C 19.769531 32.585938 19.90625 32.574219 20.023438 32.550781 C 20.144531 32.527344 20.246094 32.492188 20.328125 32.445312 C 20.46875 32.355469 20.582031 32.238281 20.667969 32.085938 C 20.753906 31.9375 20.796875 31.777344 20.796875 31.613281 C 20.796875 31.347656 20.730469 31.140625 20.601562 30.980469 C 20.46875 30.824219 20.292969 30.746094 20.074219 30.746094 Z M 20.242188 32.109375 C 20.101562 32.238281 19.90625 32.300781 19.660156 32.300781 C 19.632812 32.300781 19.613281 32.300781 19.597656 32.300781 C 19.582031 32.300781 19.570312 32.300781 19.558594 32.296875 L 19.742188 31.050781 C 19.78125 31.035156 19.816406 31.019531 19.851562 31.011719 C 19.886719 31.003906 19.921875 31 19.953125 31 C 20.109375 31 20.230469 31.050781 20.320312 31.15625 C 20.40625 31.257812 20.453125 31.398438 20.453125 31.578125 C 20.453125 31.804688 20.382812 31.984375 20.242188 32.109375 Z M 20.242188 32.109375 "/>
<path style=" stroke:none;fill-rule:evenodd;fill:rgb(0%,21.568627%,43.921569%);fill-opacity:1;" d="M 24.902344 30.421875 L 24.550781 30.421875 L 24.46875 30.789062 L 24.164062 30.789062 L 24.109375 31.042969 L 24.40625 31.042969 L 24.25 31.800781 C 24.234375 31.878906 24.222656 31.945312 24.214844 31.992188 C 24.210938 32.039062 24.207031 32.082031 24.207031 32.121094 C 24.207031 32.261719 24.25 32.378906 24.339844 32.464844 C 24.425781 32.550781 24.542969 32.59375 24.683594 32.59375 C 24.742188 32.59375 24.804688 32.585938 24.871094 32.566406 C 24.9375 32.550781 25.007812 32.519531 25.082031 32.484375 L 25.082031 32.171875 C 25.027344 32.207031 24.976562 32.234375 24.925781 32.25 C 24.875 32.265625 24.828125 32.277344 24.789062 32.277344 C 24.714844 32.277344 24.65625 32.257812 24.621094 32.222656 C 24.585938 32.183594 24.566406 32.128906 24.566406 32.054688 C 24.566406 32.027344 24.570312 31.992188 24.574219 31.953125 C 24.578125 31.914062 24.589844 31.867188 24.597656 31.808594 L 24.757812 31.039062 L 25.109375 31.039062 L 25.164062 30.789062 L 24.816406 30.789062 Z M 24.902344 30.421875 "/>
<path style=" stroke:none;fill-rule:evenodd;fill:rgb(0%,21.568627%,43.921569%);fill-opacity:1;" d="M 13.882812 30.75 C 13.78125 30.75 13.679688 30.777344 13.574219 30.828125 C 13.472656 30.882812 13.367188 30.964844 13.257812 31.074219 L 13.300781 30.789062 L 12.960938 30.789062 L 12.691406 32.558594 L 13.035156 32.558594 L 13.222656 31.390625 C 13.316406 31.273438 13.40625 31.183594 13.496094 31.125 C 13.585938 31.0625 13.671875 31.035156 13.753906 31.035156 C 13.820312 31.035156 13.871094 31.050781 13.90625 31.085938 C 13.941406 31.121094 13.957031 31.171875 13.957031 31.242188 C 13.957031 31.261719 13.957031 31.285156 13.953125 31.316406 C 13.953125 31.347656 13.949219 31.378906 13.941406 31.417969 L 13.78125 32.558594 L 14.121094 32.558594 L 14.277344 31.503906 C 14.285156 31.453125 14.292969 31.40625 14.296875 31.359375 C 14.300781 31.3125 14.300781 31.273438 14.300781 31.234375 C 14.300781 31.078125 14.265625 30.960938 14.191406 30.875 C 14.117188 30.792969 14.015625 30.75 13.882812 30.75 Z M 13.882812 30.75 "/>
<path style=" stroke:none;fill-rule:evenodd;fill:rgb(0%,21.568627%,43.921569%);fill-opacity:1;" d="M 11.820312 30.75 C 11.574219 30.75 11.371094 30.84375 11.207031 31.035156 C 11.046875 31.226562 10.96875 31.46875 10.96875 31.761719 C 10.96875 32.007812 11.039062 32.207031 11.179688 32.363281 C 11.320312 32.515625 11.503906 32.59375 11.726562 32.59375 C 11.824219 32.59375 11.925781 32.578125 12.023438 32.546875 C 12.121094 32.515625 12.222656 32.464844 12.324219 32.398438 L 12.378906 32.039062 C 12.257812 32.132812 12.144531 32.203125 12.046875 32.242188 C 11.949219 32.285156 11.851562 32.308594 11.757812 32.308594 C 11.636719 32.308594 11.53125 32.257812 11.449219 32.164062 C 11.367188 32.066406 11.328125 31.945312 11.328125 31.800781 L 11.328125 31.757812 L 11.335938 31.640625 L 12.449219 31.640625 L 12.449219 31.441406 C 12.449219 31.21875 12.394531 31.046875 12.289062 30.925781 C 12.179688 30.808594 12.023438 30.75 11.820312 30.75 Z M 12.132812 31.394531 L 11.390625 31.394531 C 11.429688 31.265625 11.484375 31.171875 11.554688 31.113281 C 11.625 31.050781 11.714844 31.023438 11.828125 31.023438 C 11.921875 31.023438 11.996094 31.050781 12.050781 31.109375 C 12.105469 31.167969 12.132812 31.246094 12.132812 31.347656 Z M 12.132812 31.394531 "/>
<path style=" stroke:none;fill-rule:evenodd;fill:rgb(0%,21.568627%,43.921569%);fill-opacity:1;" d="M 42.414062 30.746094 L 42.335938 30.746094 C 42.171875 30.746094 42.027344 30.761719 41.898438 30.796875 C 41.773438 30.832031 41.664062 30.886719 41.5625 30.960938 C 41.417969 31.066406 41.304688 31.195312 41.222656 31.34375 C 41.144531 31.492188 41.105469 31.652344 41.105469 31.820312 C 41.105469 32.058594 41.1875 32.25 41.351562 32.386719 C 41.515625 32.523438 41.742188 32.59375 42.03125 32.59375 C 42.078125 32.59375 42.136719 32.589844 42.207031 32.585938 C 42.277344 32.582031 42.371094 32.574219 42.480469 32.5625 L 42.878906 29.882812 L 42.539062 29.882812 Z M 42.175781 32.292969 C 42.152344 32.296875 42.125 32.300781 42.09375 32.304688 C 42.0625 32.308594 42.03125 32.308594 41.992188 32.308594 C 41.832031 32.308594 41.703125 32.261719 41.605469 32.160156 C 41.507812 32.0625 41.457031 31.933594 41.457031 31.773438 C 41.457031 31.558594 41.53125 31.382812 41.683594 31.242188 C 41.835938 31.105469 42.03125 31.035156 42.277344 31.035156 C 42.285156 31.035156 42.296875 31.039062 42.316406 31.039062 C 42.335938 31.039062 42.347656 31.039062 42.359375 31.039062 Z M 42.175781 32.292969 "/>
<path style=" stroke:none;fill-rule:evenodd;fill:rgb(0%,21.568627%,43.921569%);fill-opacity:1;" d="M 15.886719 30.746094 L 15.808594 30.746094 C 15.644531 30.746094 15.5 30.761719 15.375 30.796875 C 15.25 30.832031 15.136719 30.886719 15.035156 30.960938 C 14.890625 31.066406 14.777344 31.195312 14.699219 31.34375 C 14.621094 31.492188 14.578125 31.652344 14.578125 31.820312 C 14.578125 32.058594 14.660156 32.25 14.824219 32.386719 C 14.988281 32.523438 15.214844 32.59375 15.503906 32.59375 C 15.550781 32.59375 15.609375 32.589844 15.679688 32.585938 C 15.753906 32.582031 15.84375 32.574219 15.953125 32.5625 L 16.351562 29.882812 L 16.011719 29.882812 Z M 15.652344 32.292969 C 15.625 32.296875 15.597656 32.300781 15.566406 32.304688 C 15.539062 32.308594 15.503906 32.308594 15.46875 32.308594 C 15.308594 32.308594 15.179688 32.261719 15.082031 32.160156 C 14.980469 32.0625 14.933594 31.933594 14.933594 31.773438 C 14.933594 31.558594 15.007812 31.382812 15.160156 31.242188 C 15.308594 31.105469 15.507812 31.035156 15.75 31.035156 C 15.761719 31.035156 15.773438 31.039062 15.792969 31.039062 C 15.808594 31.039062 15.824219 31.039062 15.832031 31.039062 Z M 15.652344 32.292969 "/>
<path style=" stroke:none;fill-rule:evenodd;fill:rgb(22.352941%,66.27451%,20.784314%);fill-opacity:1;" d="M 7.996094 17.378906 C 8.390625 19.585938 9.457031 21.375 11.101562 22.855469 C 9.160156 24.109375 7.828125 25.144531 6.46875 26.761719 C 3.355469 23.746094 4.625 19.070312 7.996094 17.378906 Z M 7.996094 17.378906 "/>
<path style=" stroke:none;fill-rule:evenodd;fill:rgb(0%,21.568627%,43.921569%);fill-opacity:1;" d="M 13.429688 24.765625 L 15.101562 26.066406 C 13.511719 28.371094 10.433594 28.96875 7.96875 27.832031 C 9.457031 26.984375 12.003906 25.84375 13.429688 24.765625 Z M 13.429688 24.765625 "/>
<path style=" stroke:none;fill-rule:evenodd;fill:rgb(0%,21.568627%,43.921569%);fill-opacity:1;" d="M 5.941406 28.535156 C 7.410156 26.039062 9.464844 24.632812 11.539062 23.265625 C 12.011719 23.644531 12.484375 24.019531 12.957031 24.398438 C 12.082031 25.003906 11.097656 25.59375 10.105469 26.078125 C 8.703125 26.765625 7.285156 27.492188 5.941406 28.535156 Z M 5.941406 28.535156 "/>
<path style=" stroke:none;fill-rule:evenodd;fill:rgb(22.352941%,66.27451%,20.784314%);fill-opacity:1;" d="M 13.554688 17.628906 C 14.386719 17.628906 15.058594 18.304688 15.058594 19.136719 C 15.058594 19.96875 14.386719 20.640625 13.554688 20.640625 C 12.722656 20.640625 12.046875 19.96875 12.046875 19.136719 C 12.046875 18.304688 12.722656 17.628906 13.554688 17.628906 Z M 13.554688 17.628906 "/>
<path style=" stroke:none;fill-rule:evenodd;fill:rgb(22.352941%,66.27451%,20.784314%);fill-opacity:1;" d="M 8.519531 16.554688 C 8.664062 18.742188 9.660156 20.65625 11.472656 22.371094 C 13.117188 23.925781 15.039062 24.96875 16.910156 26.921875 C 16.203125 25.117188 14.851562 23.304688 12.917969 21.5 C 11.316406 20.003906 9.578125 18.425781 8.519531 16.554688 Z M 8.519531 16.554688 "/>
<path style=" stroke:none;fill-rule:evenodd;fill:rgb(0%,21.568627%,43.921569%);fill-opacity:1;" d="M 13.84375 21.671875 C 14.199219 22 14.546875 22.335938 14.882812 22.683594 C 15.6875 21.707031 16.292969 20.523438 16.683594 19.109375 C 15.847656 20.058594 14.921875 20.929688 13.84375 21.671875 Z M 13.84375 21.671875 "/>
<path style=" stroke:none;fill-rule:evenodd;fill:rgb(0%,21.568627%,43.921569%);fill-opacity:1;" d="M 41.714844 24.582031 C 41.898438 23.800781 42.453125 23.40625 43.378906 23.394531 L 45.308594 23.394531 L 45.199219 24.261719 L 43.476562 24.269531 C 42.984375 24.273438 42.714844 24.5 42.667969 24.949219 L 42.46875 26.925781 C 42.417969 27.375 42.648438 27.574219 43.15625 27.546875 L 44.84375 27.546875 L 44.742188 28.46875 L 42.933594 28.46875 C 41.90625 28.46875 41.339844 27.929688 41.402344 27.148438 Z M 37.0625 28.433594 L 37.160156 27.492188 L 39.105469 27.5 C 39.777344 27.546875 40.230469 26.769531 39.09375 26.371094 C 38.566406 26.140625 38.140625 25.929688 37.867188 25.667969 C 37.539062 25.347656 37.425781 24.992188 37.496094 24.648438 C 37.652344 23.78125 38.390625 23.34375 39.335938 23.359375 L 40.980469 23.371094 L 40.890625 24.335938 L 39.191406 24.335938 C 38.628906 24.28125 38.289062 24.660156 38.695312 24.96875 C 38.953125 25.207031 39.75 25.433594 40.335938 25.890625 C 40.734375 26.203125 40.953125 26.648438 40.8125 27.144531 C 40.578125 27.964844 39.988281 28.4375 38.894531 28.457031 Z M 36.929688 24.269531 L 37.015625 23.394531 L 35.273438 23.382812 C 34.585938 23.359375 33.496094 23.605469 33.398438 24.769531 L 33.140625 27.089844 C 32.996094 28.121094 33.863281 28.449219 34.464844 28.445312 L 36.449219 28.433594 L 36.5625 27.578125 L 34.863281 27.578125 C 34.445312 27.601562 34.128906 27.410156 34.175781 27.046875 L 34.230469 26.359375 L 36.171875 26.359375 L 36.25 25.492188 L 34.320312 25.503906 L 34.351562 24.96875 C 34.390625 24.40625 34.777344 24.25 35.320312 24.28125 Z M 30.21875 24.136719 C 31.1875 24.136719 31.902344 24.894531 31.808594 25.820312 C 31.71875 26.746094 30.855469 27.5 29.886719 27.5 C 28.917969 27.5 28.203125 26.746094 28.292969 25.820312 C 28.382812 24.894531 29.25 24.136719 30.21875 24.136719 Z M 30.3125 23.195312 C 28.800781 23.195312 27.449219 24.375 27.308594 25.820312 C 27.164062 27.265625 28.28125 28.445312 29.792969 28.445312 C 31.304688 28.445312 32.65625 27.265625 32.796875 25.820312 C 32.9375 24.375 31.824219 23.195312 30.3125 23.195312 Z M 22.4375 28.386719 L 23.433594 28.398438 L 23.78125 24.964844 L 24.9375 27.707031 C 25.25 28.683594 26.414062 28.859375 26.550781 27.292969 L 26.984375 23.289062 L 25.988281 23.289062 L 25.621094 26.71875 L 24.539062 24.066406 C 24.234375 23.046875 23.066406 22.871094 22.914062 24.078125 Z M 18.539062 23.261719 L 19.550781 23.261719 L 19.230469 26.253906 C 19.125 27.339844 19.523438 27.476562 19.917969 27.5 C 20.605469 27.523438 20.996094 27.117188 21.082031 26.257812 L 21.398438 23.277344 L 22.425781 23.277344 L 22.09375 26.117188 C 22.003906 27.523438 21.226562 28.484375 19.796875 28.433594 C 18.445312 28.332031 18.113281 27.351562 18.210938 26.464844 Z M 18.539062 23.261719 "/>
</g>
</svg>
